<?xml version="1.0" encoding="utf-8"?>
<!-- Generator: Adobe Illustrator 25.4.1, SVG Export Plug-In . SVG Version: 6.00 Build 0)  -->
<svg version="1.0" id="katman_1" xmlns="http://www.w3.org/2000/svg" xmlns:xlink="http://www.w3.org/1999/xlink" x="0px" y="0px"
	 viewBox="0 0 63.8 44.5" style="enable-background:new 0 0 63.8 44.5;" xml:space="preserve">
<style type="text/css">
	.st0{fill:#FFFFFF;}
	.st1{fill:#000001;}
	.st2{fill:url(#SVGID_1_);}
</style>
<symbol  id="toolbox" viewBox="-14 -16 28 32">
	<path class="st0" d="M10,6.4l-6.8,3.8v-3L10,3.4V6.4z"/>
	<path class="st1" d="M0,16l14-8V-8L0,0V16z"/>
	<path class="st0" d="M2.9,8.6V11L9,7.5V5.1L2.9,8.6z"/>
	<linearGradient id="SVGID_1_" gradientUnits="userSpaceOnUse" x1="-13.82" y1="7.1791" x2="14.041" y2="-7.2939">
		<stop  offset="4.300000e-02" style="stop-color:#FF8618"/>
		<stop  offset="0.382" style="stop-color:#FF246E"/>
		<stop  offset="0.989" style="stop-color:#AF1DF5"/>
	</linearGradient>
	<path class="st2" d="M0-16l-14,8l0,0l0,0V8l14,8V0l14-8L0-16z"/>
</symbol>
<g>
	<defs>
		<rect id="SVGID_00000060713214686886621770000017077242846392936373_" x="15.9" y="6.3" width="32" height="32"/>
	</defs>
	<clipPath id="SVGID_00000086681708394190286950000005115259338535025028_">
		<use xlink:href="#SVGID_00000060713214686886621770000017077242846392936373_"  style="overflow:visible;"/>
	</clipPath>
	<g style="clip-path:url(#SVGID_00000086681708394190286950000005115259338535025028_);">
		
			<use xlink:href="#toolbox"  width="28" height="32" x="-14" y="-16" transform="matrix(1 0 0 1 31.9085 22.3408)" style="overflow:visible;"/>
	</g>
</g>
</svg>
